<svg width="40" height="40" viewBox="0 0 40 40" fill="none" xmlns="http://www.w3.org/2000/svg">
<path d="M20.0195 1.2533C9.66422 1.2533 1.26953 9.64791 1.26953 20.0033C1.26953 30.3587 9.66422 38.7533 20.0195 38.7533C30.3748 38.7533 38.7695 30.3586 38.7695 20.0033C38.7695 9.64798 30.375 1.2533 20.0195 1.2533ZM31.51 31.4938C28.6607 34.3344 24.8559 36.0125 20.837 36.201C16.8181 36.3896 12.8729 35.0751 9.77017 32.5137C6.66746 29.9523 4.62951 26.3275 4.0534 22.3456C3.4773 18.3637 4.40431 14.31 6.65382 10.9742C8.90332 7.6385 12.3142 5.25974 16.2218 4.30148C20.1293 3.34322 24.2537 3.87409 27.7913 5.79066C31.3288 7.70723 34.0261 10.8722 35.3575 14.6689C36.689 18.4655 36.5592 22.6219 34.9935 26.3281C34.1775 28.2592 32.9945 30.0135 31.51 31.4938Z" fill="black"/>
<path d="M18.7216 12.8896L24.5851 18.7532H10.0107V21.2532H24.5851L18.7216 27.1168L20.4894 28.8845L29.3707 20.0032L20.4894 11.1219L18.7216 12.8896Z" fill="black"/>
</svg>
