<svg width="24" height="25" viewBox="0 0 24 25" fill="none" xmlns="http://www.w3.org/2000/svg">
<path d="M7.596 15.7459C7.73818 15.617 7.92622 15.5468 8.12052 15.5502C8.31482 15.5535 8.50021 15.6301 8.63762 15.7638C8.77503 15.8975 8.85375 16.0779 8.85717 16.2669C8.8606 16.456 8.78848 16.6389 8.656 16.7773L5.561 19.7877H7.75C7.93124 19.7877 8.10634 19.8515 8.24293 19.9674C8.37952 20.0833 8.46835 20.2434 8.493 20.4181L8.5 20.5174C8.5 20.7109 8.42098 20.8965 8.28033 21.0334C8.13968 21.1702 7.94891 21.2471 7.75 21.2471H3.75C3.55109 21.2471 3.36032 21.1702 3.21967 21.0334C3.07902 20.8965 3 20.7109 3 20.5174V16.6255C3 16.432 3.07902 16.2463 3.21967 16.1095C3.36032 15.9726 3.55109 15.8958 3.75 15.8958C3.94891 15.8958 4.13968 15.9726 4.28033 16.1095C4.42098 16.2463 4.5 16.432 4.5 16.6255V18.7563L7.596 15.7459ZM16.255 21.2471C16.0561 21.2471 15.8653 21.1702 15.7247 21.0334C15.584 20.8965 15.505 20.7109 15.505 20.5174C15.505 20.3238 15.584 20.1382 15.7247 20.0014C15.8653 19.8645 16.0561 19.7877 16.255 19.7877H18.441L15.35 16.7773C15.223 16.6537 15.1458 16.4899 15.1324 16.3156C15.119 16.1414 15.1703 15.9682 15.277 15.8277L15.35 15.7459C15.4906 15.6093 15.6812 15.5325 15.88 15.5325C16.0788 15.5325 16.2694 15.6093 16.41 15.7459L19.505 18.7582V16.6255C19.505 16.4491 19.5706 16.2788 19.6898 16.1459C19.8089 16.013 19.9734 15.9266 20.153 15.9026L20.255 15.8958C20.4539 15.8958 20.6447 15.9726 20.7853 16.1095C20.926 16.2463 21.005 16.432 21.005 16.6255V20.5174C21.005 20.7109 20.926 20.8965 20.7853 21.0334C20.6447 21.1702 20.4539 21.2471 20.255 21.2471H16.255ZM7.75 3.72971C7.94891 3.72971 8.13968 3.80659 8.28033 3.94344C8.42098 4.08029 8.5 4.2659 8.5 4.45944C8.5 4.65297 8.42098 4.83858 8.28033 4.97543C8.13968 5.11228 7.94891 5.18917 7.75 5.18917H5.563L8.656 8.20052C8.78287 8.32419 8.85991 8.48806 8.87312 8.66233C8.88634 8.83659 8.83484 9.00968 8.728 9.15014L8.655 9.23284C8.51437 9.3695 8.32375 9.44625 8.125 9.44625C7.92625 9.44625 7.73563 9.3695 7.595 9.23284L4.5 6.2176V8.35133C4.49999 8.52767 4.43436 8.69804 4.31523 8.83094C4.19611 8.96383 4.03155 9.05026 3.852 9.07425L3.75 9.08106C3.55109 9.08106 3.36032 9.00417 3.21967 8.86732C3.07902 8.73047 3 8.54486 3 8.35133V4.45944C3 4.2659 3.07902 4.08029 3.21967 3.94344C3.36032 3.80659 3.55109 3.72971 3.75 3.72971H7.75ZM20.255 3.72971C20.4539 3.72971 20.6447 3.80659 20.7853 3.94344C20.926 4.08029 21.005 4.2659 21.005 4.45944V8.35133C21.005 8.54486 20.926 8.73047 20.7853 8.86732C20.6447 9.00417 20.4539 9.08106 20.255 9.08106C20.0561 9.08106 19.8653 9.00417 19.7247 8.86732C19.584 8.73047 19.505 8.54486 19.505 8.35133V6.21954L16.41 9.23187C16.283 9.35545 16.1147 9.43059 15.9355 9.44363C15.7564 9.45666 15.5785 9.40672 15.434 9.30289L15.35 9.23187C15.2095 9.09504 15.1307 8.90957 15.1307 8.71619C15.1307 8.52281 15.2095 8.33734 15.35 8.20052L18.442 5.18917H16.255C16.0738 5.18916 15.8987 5.1253 15.7621 5.00939C15.6255 4.89349 15.5366 4.73338 15.512 4.55868L15.505 4.45944C15.505 4.2659 15.584 4.08029 15.7247 3.94344C15.8653 3.80659 16.0561 3.72971 16.255 3.72971H20.255Z" fill="black"/>
</svg>
